<svg xmlns="http://www.w3.org/2000/svg" fill="none" viewBox="0 0 1241 236" height="236" width="1241">
<g clip-path="url(#clip0_5003_783)">
<path fill="#FFFEFB" d="M1224.49 23.3801C1224.49 24.2201 1224.35 24.87 1224.06 25.3C1223.77 25.73 1223.39 26.0601 1222.91 26.2701C1222.38 26.5001 1221.76 26.6401 1221.08 26.6901C1220.33 26.7401 1219.54 26.7701 1218.7 26.7701H1215.36V20.2501H1219.76C1220.38 20.2501 1220.98 20.2901 1221.6 20.3801C1222.18 20.4601 1222.69 20.62 1223.13 20.85C1223.54 21.06 1223.87 21.3601 1224.13 21.7601C1224.38 22.1401 1224.5 22.6801 1224.5 23.3701M1230.46 41.3701L1223.51 30.6301C1225.03 30.3401 1226.35 29.7301 1227.44 28.8301C1228.81 27.6901 1229.5 25.91 1229.5 23.54C1229.5 21.02 1228.72 19.1001 1227.19 17.8401C1225.69 16.6001 1223.4 15.97 1220.37 15.97H1210.35V41.53H1215.36V31.0601H1218.42L1225.04 41.53H1230.27C1228.92 42.79 1227.4 43.8601 1225.66 44.6201C1221.64 46.3801 1216.57 46.3501 1212.59 44.6201C1210.57 43.7401 1208.8 42.52 1207.32 40.99C1205.84 39.46 1204.67 37.62 1203.83 35.54C1202.99 33.46 1202.57 31.14 1202.57 28.67C1202.57 26.2 1202.99 24.0101 1203.83 21.9401C1204.66 19.8701 1205.84 18.06 1207.32 16.54C1208.79 15.03 1210.57 13.8201 1212.59 12.9401C1214.6 12.0701 1216.81 11.6301 1219.17 11.6301C1221.53 11.6301 1223.67 12.0701 1225.66 12.9401C1227.66 13.8201 1229.42 15.03 1230.9 16.54C1232.38 18.06 1233.55 19.8701 1234.39 21.9401C1235.23 24.0101 1235.65 26.27 1235.65 28.67C1235.65 31.07 1235.23 33.46 1234.39 35.54C1233.56 37.62 1232.38 39.46 1230.9 40.99C1230.76 41.13 1230.59 41.2401 1230.45 41.3701M1238.95 20.24C1237.81 17.66 1236.25 15.39 1234.31 13.48C1232.37 11.58 1230.08 10.07 1227.49 8.99005C1222.32 6.82005 1216.05 6.82005 1210.85 8.99005C1208.25 10.07 1205.94 11.59 1203.98 13.48C1202.01 15.39 1200.44 17.6701 1199.31 20.2501C1198.16 22.8401 1197.58 25.6801 1197.58 28.6801C1197.58 31.6801 1198.16 34.6401 1199.31 37.2501C1200.44 39.8501 1202.01 42.1401 1203.98 44.0701C1205.94 45.9901 1208.25 47.5101 1210.86 48.5701C1213.46 49.6401 1216.26 50.17 1219.19 50.17C1222.12 50.17 1224.91 49.6301 1227.5 48.5701C1230.09 47.5001 1232.39 45.9901 1234.32 44.0701C1236.26 42.1501 1237.82 39.8601 1238.96 37.2501C1240.1 34.6401 1240.68 31.7601 1240.68 28.6801C1240.68 25.6001 1240.1 22.8501 1238.96 20.2501"></path>
<path fill="#FFFEFB" d="M180.88 121.78C180.88 166.05 148.41 193.55 96.14 193.55H45.78V49.6701H96.14C149.2 49.6701 180.88 76.6301 180.88 121.78ZM97.48 7.3501H0V235.53H97.48C179 235.53 227.67 192.88 227.67 121.44C227.67 50.0001 179 7.3501 97.48 7.3501Z"></path>
<path fill="#FFFEFB" d="M271.04 235.53H452.34V193.43H316.83V141.57H442.83V99.4699H316.83V49.0999H453.27V6.66992H271.04V235.53Z"></path>
<path fill="#FFFEFB" d="M546.87 6.66992H501.08V235.53H676.45V193.09H546.87V6.66992Z"></path>
<path fill="#FFFEFB" d="M768.89 6.66992H723.11V235.53H898.48V193.09H768.89V6.66992Z"></path>
<path fill="#FFFEFB" d="M1117.73 88.19V134.75H989.91V88.19L1053.82 52.13L1117.73 88.19ZM1054.6 0.469971L1054 0.140015L1053.9 0L1053.83 0.039978L1053.75 0L944.31 59.51V235.52H989.92V179.48H1117.74V235.52H1163.4V59.51L1054.6 0.469971Z"></path>
</g>
<defs>
<clipPath id="clip0_5003_783">
<rect fill="white" height="236" width="1241"></rect>
</clipPath>
</defs>
</svg>
