<svg viewBox="0 0 502 141.16" xmlns="http://www.w3.org/2000/svg" data-name="Layer 1" id="a">
  <path fill="#0e1953" d="M481.07,35.7c0,.31-.05.56-.16.72-.11.16-.25.29-.43.36-.2.09-.43.14-.69.16-.28.02-.58.03-.89.03h-1.25v-2.45h1.65c.23,0,.46.02.69.05.22.03.41.09.57.18.16.08.28.19.37.34.09.14.14.35.14.61M483.31,42.46l-2.61-4.03c.57-.11,1.06-.34,1.47-.68h0c.51-.43.77-1.1.77-1.98,0-.94-.29-1.67-.87-2.14-.56-.47-1.42-.7-2.56-.7h-3.76v9.59h1.88v-3.93h1.15l2.49,3.93h1.96c-.51.47-1.08.87-1.73,1.16-1.51.66-3.41.65-4.9,0-.76-.33-1.42-.79-1.98-1.36-.55-.57-1-1.26-1.31-2.05-.31-.78-.47-1.65-.47-2.58s.16-1.75.47-2.53c.31-.78.76-1.46,1.31-2.03.55-.57,1.22-1.02,1.98-1.35.75-.33,1.58-.49,2.47-.49s1.69.17,2.44.49c.75.33,1.41.78,1.97,1.35.55.57,1,1.25,1.31,2.03.32.78.47,1.63.47,2.53s-.16,1.8-.47,2.58c-.31.78-.75,1.47-1.31,2.05-.05.05-.12.09-.17.14M486.5,34.52c-.43-.97-1.01-1.82-1.74-2.54-.73-.71-1.59-1.28-2.56-1.69-1.94-.81-4.29-.81-6.25,0-.98.41-1.84.97-2.58,1.69-.74.72-1.33,1.57-1.75,2.54-.43.97-.65,2.04-.65,3.16s.22,2.24.65,3.21c.42.98,1.01,1.84,1.75,2.56.73.72,1.6,1.29,2.58,1.69.98.4,2.03.6,3.13.6s2.15-.2,3.12-.6c.97-.4,1.84-.97,2.56-1.69.73-.72,1.31-1.58,1.74-2.56.43-.98.65-2.06.65-3.22s-.22-2.19-.65-3.16"></path>
  <path fill="#0e1953" d="M89.45,72.63c0,16.61-12.18,26.93-31.8,26.93h-18.9v-53.99h18.9c19.91,0,31.8,10.12,31.8,27.06M58.16,29.69H21.57v85.62h36.58c30.59,0,48.85-16,48.85-42.81s-18.26-42.81-48.85-42.81"></path>
  <polygon fill="#0e1953" points="123.28 115.31 191.32 115.31 191.32 99.51 140.47 99.51 140.47 80.05 187.75 80.05 187.75 64.26 140.47 64.26 140.47 45.36 191.67 45.36 191.67 29.43 123.28 29.43 123.28 115.31"></polygon>
  <polygon fill="#0e1953" points="226.79 29.43 209.61 29.43 209.61 115.31 275.42 115.31 275.42 99.39 226.79 99.39 226.79 29.43"></polygon>
  <polygon fill="#0e1953" points="310.1 29.43 292.92 29.43 292.92 115.31 358.73 115.31 358.73 99.39 310.1 99.39 310.1 29.43"></polygon>
  <path fill="#0e1953" d="M441.01,60.03v17.47h-47.97v-17.47l23.98-13.53,23.98,13.53ZM417.32,27.11l-.22-.12-.04-.05-.03.02-.03-.02-41.07,22.33v66.05h17.11v-21.03h47.97v21.03h17.13V49.26l-40.83-22.16Z"></path>
</svg>